<svg xmlns="http://www.w3.org/2000/svg" xmlns:xlink="http://www.w3.org/1999/xlink" version="1.1" x="0px" y="0px" viewBox="0 0 100 125" enable-background="new 0 0 100 100" xml:space="preserve"><path d="M95.598,47.533c0,0-5.11,0-5.346,0c-0.234,0-0.709,0.458-0.709,0.458c-2.085,2.085-4.254,0.206-4.46,0  c-0.205-0.206-0.444-0.458-0.726-0.458c-0.274,0-0.84,0-1.707,0c-0.311-4.175-1.402-8.133-3.133-11.726  c0.747-0.431,1.234-0.712,1.47-0.849c0.244-0.141,0.325-0.478,0.4-0.759c0.075-0.281,1.015-2.994,3.862-2.23  c0,0,0.64,0.159,0.843,0.042c0.204-0.118,4.629-2.673,4.629-2.673s2.239-1.206,0.969-3.408c-1.271-2.202-3.436-0.865-3.436-0.865  s-4.426,2.555-4.629,2.672c-0.203,0.118-0.386,0.75-0.386,0.75c-0.763,2.849-3.581,2.305-3.862,2.23  c-0.281-0.076-0.613-0.174-0.857-0.034c-0.236,0.137-0.726,0.419-1.474,0.851c-2.302-3.366-5.216-6.281-8.581-8.584  c0.431-0.748,0.713-1.236,0.85-1.472c0.141-0.244,0.042-0.576-0.033-0.857c-0.075-0.281-0.618-3.099,2.23-3.862  c0,0,0.633-0.182,0.75-0.386c0.117-0.203,2.673-4.629,2.673-4.629s1.336-2.164-0.865-3.435c-2.202-1.271-3.408,0.968-3.408,0.968  s-2.555,4.425-2.673,4.629c-0.117,0.204,0.042,0.843,0.042,0.843c0.763,2.848-1.949,3.787-2.23,3.862  c-0.28,0.075-0.618,0.156-0.759,0.4c-0.136,0.236-0.417,0.722-0.847,1.466c-3.594-1.732-7.552-2.826-11.729-3.137  c0-0.863,0-1.426,0-1.699c0-0.281-0.251-0.52-0.457-0.726c-0.205-0.206-2.085-2.375,0-4.46c0,0,0.457-0.475,0.457-0.709  c0-0.235,0-5.345,0-5.345S52.542,1.86,50,1.86c-2.542,0-2.467,2.542-2.467,2.542s0,5.11,0,5.345c0,0.234,0.458,0.709,0.458,0.709  c2.085,2.085,0.206,4.254,0,4.46s-0.458,0.444-0.458,0.726c0,0.273,0,0.836,0,1.699c-4.176,0.311-8.135,1.405-11.728,3.137  c-0.43-0.745-0.71-1.23-0.847-1.466c-0.141-0.244-0.478-0.325-0.759-0.4c-0.281-0.075-2.993-1.014-2.23-3.862  c0,0,0.159-0.64,0.042-0.843c-0.118-0.204-2.673-4.629-2.673-4.629S28.132,7.039,25.93,8.31c-2.202,1.271-0.865,3.436-0.865,3.436  s2.555,4.425,2.672,4.629c0.118,0.204,0.75,0.385,0.75,0.385c2.849,0.764,2.306,3.582,2.23,3.863  c-0.075,0.281-0.173,0.614-0.033,0.857c0.136,0.237,0.418,0.725,0.85,1.473c-3.366,2.303-6.279,5.217-8.582,8.584  c-0.749-0.432-1.237-0.714-1.474-0.851c-0.243-0.14-0.576-0.042-0.857,0.034c-0.281,0.075-3.099,0.618-3.863-2.23  c0,0-0.182-0.633-0.385-0.75c-0.203-0.117-4.629-2.672-4.629-2.672S9.581,23.729,8.31,25.93c-1.271,2.202,0.968,3.408,0.968,3.408  s4.426,2.555,4.629,2.673c0.203,0.117,0.843-0.042,0.843-0.042c2.848-0.763,3.787,1.949,3.862,2.23  c0.075,0.281,0.156,0.618,0.4,0.759c0.236,0.136,0.723,0.417,1.47,0.849c-1.73,3.593-2.822,7.551-3.132,11.726  c-0.867,0-1.433,0-1.707,0c-0.281,0-0.52,0.252-0.726,0.458s-2.375,2.085-4.46,0c0,0-0.475-0.458-0.709-0.458  c-0.235,0-5.345,0-5.345,0S1.86,47.458,1.86,50c0,2.542,2.542,2.467,2.542,2.467s5.11,0,5.345,0c0.234,0,0.709-0.457,0.709-0.457  c2.085-2.085,4.254-0.206,4.46,0c0.206,0.205,0.444,0.457,0.726,0.457c0.274,0,0.84,0,1.708,0c0.312,4.175,1.407,8.131,3.138,11.724  c-0.75,0.433-1.239,0.715-1.476,0.852c-0.244,0.141-0.325,0.479-0.4,0.759c-0.075,0.281-1.014,2.993-3.862,2.23  c0,0-0.64-0.159-0.843-0.042c-0.204,0.118-4.629,2.673-4.629,2.673S7.039,71.868,8.31,74.07c1.271,2.201,3.436,0.865,3.436,0.865  s4.426-2.556,4.629-2.673c0.204-0.117,0.385-0.75,0.385-0.75c0.764-2.849,3.582-2.306,3.863-2.23s0.614,0.174,0.857,0.033  c0.238-0.138,0.729-0.421,1.482-0.856c2.302,3.364,5.215,6.276,8.581,8.577c-0.436,0.755-0.72,1.247-0.857,1.484  c-0.141,0.244-0.042,0.576,0.033,0.857c0.076,0.281,0.619,3.1-2.23,3.862c0,0-0.633,0.183-0.75,0.386  c-0.117,0.203-2.672,4.629-2.672,4.629s-1.336,2.164,0.865,3.436s3.408-0.969,3.408-0.969s2.555-4.425,2.673-4.629  c0.117-0.203-0.042-0.843-0.042-0.843c-0.763-2.848,1.949-3.787,2.23-3.862c0.281-0.075,0.618-0.156,0.759-0.399  c0.137-0.237,0.42-0.729,0.854-1.479c3.591,1.729,7.547,2.821,11.72,3.133c0,0.872,0,1.44,0,1.716c0,0.281,0.252,0.521,0.458,0.726  c0.206,0.206,2.085,2.375,0,4.46c0,0-0.458,0.475-0.458,0.709c0,0.235,0,5.346,0,5.346S47.458,98.14,50,98.14  c2.542,0,2.467-2.542,2.467-2.542s0-5.11,0-5.346c0-0.234-0.457-0.709-0.457-0.709c-2.085-2.085-0.205-4.254,0-4.46  c0.206-0.205,0.457-0.444,0.457-0.726c0-0.275,0-0.844,0-1.716c4.174-0.312,8.13-1.404,11.721-3.134  c0.435,0.752,0.718,1.243,0.854,1.479c0.141,0.244,0.479,0.325,0.759,0.4c0.281,0.075,2.993,1.015,2.23,3.862  c0,0-0.159,0.64-0.042,0.843c0.118,0.203,2.673,4.629,2.673,4.629s1.206,2.239,3.408,0.969c2.201-1.271,0.865-3.436,0.865-3.436  s-2.556-4.426-2.673-4.629s-0.75-0.386-0.75-0.386c-2.849-0.763-2.306-3.581-2.23-3.862s0.174-0.613,0.033-0.857  c-0.138-0.237-0.422-0.729-0.857-1.484c3.365-2.301,6.278-5.213,8.58-8.577c0.754,0.436,1.245,0.719,1.482,0.856  c0.244,0.141,0.576,0.042,0.857-0.033s3.1-0.618,3.862,2.23c0,0,0.183,0.633,0.386,0.75s4.629,2.673,4.629,2.673  s2.164,1.336,3.436-0.865c1.271-2.202-0.969-3.408-0.969-3.408s-4.425-2.555-4.629-2.673c-0.203-0.117-0.843,0.042-0.843,0.042  c-2.848,0.763-3.787-1.949-3.862-2.23c-0.075-0.28-0.156-0.618-0.4-0.759c-0.236-0.137-0.726-0.419-1.476-0.852  c1.731-3.593,2.825-7.549,3.138-11.724c0.868,0,1.434,0,1.708,0c0.281,0,0.521-0.252,0.726-0.457c0.206-0.206,2.375-2.085,4.46,0  c0,0,0.475,0.457,0.709,0.457c0.235,0,5.346,0,5.346,0S98.14,52.542,98.14,50C98.14,47.458,95.598,47.533,95.598,47.533z M50,81.827  c-17.583,0-31.836-14.253-31.836-31.835S32.417,18.156,50,18.156c17.583,0,31.836,14.253,31.836,31.836S67.583,81.827,50,81.827z"/><circle cx="50" cy="49.991" r="2.468"/><path d="M50,45.141c-2.674,0-4.85,2.176-4.85,4.851c0,2.674,2.176,4.85,4.85,4.85c2.675,0,4.851-2.176,4.851-4.85  C54.851,47.317,52.675,45.141,50,45.141z M50,53.331c-1.845,0-3.34-1.495-3.34-3.339c0-1.845,1.495-3.34,3.34-3.34  s3.34,1.495,3.34,3.34C53.34,51.836,51.845,53.331,50,53.331z"/><path d="M50,18.575c-17.351,0-31.417,14.066-31.417,31.417c0,17.35,14.066,31.417,31.417,31.417s31.416-14.066,31.416-31.417  C81.416,32.641,67.351,18.575,50,18.575z M64.076,23.644c0.271-0.47,0.873-0.631,1.344-0.36s0.632,0.873,0.359,1.343  c-0.271,0.471-0.873,0.632-1.344,0.36C63.966,24.716,63.805,24.115,64.076,23.644z M50,19.152c0.543,0,0.984,0.44,0.984,0.984  c0,0.543-0.44,0.983-0.984,0.983s-0.983-0.44-0.983-0.983C49.017,19.593,49.457,19.152,50,19.152z M34.581,23.284  c0.47-0.271,1.072-0.11,1.344,0.36c0.271,0.471,0.11,1.072-0.36,1.344c-0.47,0.271-1.072,0.11-1.343-0.36  C33.949,24.157,34.11,23.556,34.581,23.284z M23.292,34.572c0.271-0.471,0.874-0.632,1.344-0.36c0.471,0.271,0.631,0.874,0.36,1.344  c-0.271,0.471-0.873,0.632-1.343,0.36C23.182,35.644,23.021,35.042,23.292,34.572z M20.145,50.975c-0.543,0-0.984-0.44-0.984-0.983  s0.441-0.984,0.984-0.984c0.543,0,0.983,0.44,0.983,0.984S20.688,50.975,20.145,50.975z M24.636,65.771  c-0.47,0.271-1.072,0.11-1.344-0.36c-0.271-0.47-0.11-1.072,0.36-1.344c0.47-0.271,1.072-0.11,1.343,0.36  C25.268,64.898,25.107,65.5,24.636,65.771z M35.924,76.339c-0.271,0.471-0.873,0.632-1.343,0.36  c-0.471-0.271-0.631-0.873-0.36-1.344s0.873-0.632,1.344-0.36C36.035,75.268,36.196,75.869,35.924,76.339z M50,80.831  c-0.543,0-0.983-0.44-0.983-0.983c0-0.544,0.44-0.984,0.983-0.984s0.984,0.44,0.984,0.984C50.984,80.391,50.543,80.831,50,80.831z   M65.42,76.699c-0.471,0.271-1.072,0.11-1.344-0.36c-0.271-0.47-0.11-1.072,0.36-1.344c0.47-0.271,1.071-0.11,1.343,0.36  C66.052,75.826,65.89,76.428,65.42,76.699z M76.708,65.411c-0.271,0.471-0.874,0.632-1.344,0.36  c-0.471-0.271-0.632-0.873-0.36-1.344s0.873-0.632,1.344-0.36S76.979,64.941,76.708,65.411z M79.855,49.008  c0.543,0,0.983,0.44,0.983,0.984s-0.44,0.983-0.983,0.983s-0.983-0.44-0.983-0.983C78.872,49.448,79.313,49.008,79.855,49.008z   M50,78.286c-15.627,0-28.295-12.668-28.295-28.294c0-15.627,12.668-28.295,28.295-28.295s28.295,12.668,28.295,28.295  C78.295,65.618,65.627,78.286,50,78.286z M75.364,34.212c0.47-0.271,1.072-0.11,1.344,0.36c0.271,0.47,0.11,1.072-0.36,1.343  c-0.471,0.272-1.072,0.11-1.344-0.36C74.732,35.085,74.894,34.483,75.364,34.212z"/><path d="M58.885,28.962c-2.815-1.19-5.805-1.794-8.885-1.794c-3.081,0-6.07,0.604-8.884,1.794c-2.718,1.149-5.159,2.795-7.255,4.891  c-2.095,2.096-3.741,4.537-4.891,7.254c-1.19,2.815-1.794,5.804-1.794,8.885s0.604,6.07,1.794,8.884  c1.15,2.718,2.795,5.159,4.891,7.255c2.096,2.096,4.537,3.741,7.255,4.891c2.814,1.19,5.804,1.794,8.884,1.794  c3.08,0,6.069-0.604,8.885-1.794c2.718-1.149,5.158-2.795,7.254-4.891s3.741-4.537,4.891-7.255c1.191-2.814,1.795-5.804,1.795-8.884  s-0.604-6.07-1.795-8.885c-1.149-2.718-2.795-5.159-4.891-7.254S61.603,30.111,58.885,28.962z M51.185,28.711  c3.023,0.166,5.879,0.961,8.438,2.258c-2.66,2.103-3.226,5.293-3.289,5.709c-1.608-0.767-3.352-1.234-5.16-1.376  C52.42,32.197,51.366,29.186,51.185,28.711z M48.815,28.711c-0.182,0.475-1.235,3.485,0.012,6.592  c-1.81,0.142-3.553,0.61-5.162,1.376c-0.476-3.318-2.901-5.398-3.287-5.71C42.938,29.672,45.792,28.877,48.815,28.711z   M38.33,32.156c0.08,0.502,0.673,3.635,3.305,5.702c-0.728,0.504-1.416,1.076-2.054,1.715c-0.642,0.642-1.216,1.333-1.722,2.064  c-2.063-2.629-5.189-3.225-5.7-3.307C33.769,35.872,35.873,33.767,38.33,32.156z M30.972,40.382  c0.321,0.396,2.401,2.811,5.712,3.285c-0.766,1.609-1.233,3.354-1.373,5.164c-3.091-1.245-6.089-0.209-6.591-0.018  C28.884,45.792,29.678,42.939,30.972,40.382z M30.977,59.611c-1.294-2.555-2.089-5.405-2.256-8.424  c0.505,0.192,3.502,1.226,6.591-0.019c0.142,1.811,0.611,3.555,1.379,5.163C33.395,56.801,31.316,59.194,30.977,59.611z   M32.168,61.668c0.543-0.088,3.648-0.695,5.697-3.313c0.504,0.728,1.076,1.416,1.716,2.056c0.642,0.642,1.333,1.217,2.065,1.722  c-2.614,2.045-3.224,5.144-3.313,5.696C35.879,66.221,33.778,64.121,32.168,61.668z M48.81,71.271  c-3.016-0.166-5.864-0.959-8.418-2.251c0.427-0.349,2.811-2.426,3.277-5.716c1.609,0.767,3.354,1.234,5.165,1.376  C48.725,64.951,47.541,68.053,48.81,71.271z M36.776,49.992c0-7.304,5.92-13.225,13.224-13.225s13.225,5.921,13.225,13.225  c0,7.303-5.921,13.224-13.225,13.224S36.776,57.295,36.776,49.992z M51.19,71.271c1.269-3.219,0.084-6.32-0.023-6.591  c1.811-0.142,3.555-0.609,5.164-1.376c0.05,0.338,0.59,3.581,3.278,5.715C57.056,70.313,54.206,71.105,51.19,71.271z M61.667,67.829  c-0.507-3.407-3.063-5.499-3.313-5.696c0.731-0.506,1.424-1.08,2.065-1.722c0.64-0.64,1.212-1.328,1.716-2.056  c0.205,0.261,2.297,2.807,5.697,3.312C66.223,64.12,64.121,66.221,61.667,67.829z M69.022,59.612  c-2.124-2.679-5.352-3.228-5.713-3.28c0.768-1.609,1.236-3.353,1.378-5.162c0.317,0.125,3.398,1.28,6.592,0.018  C71.112,54.206,70.317,57.057,69.022,59.612z M69.028,40.381c1.294,2.557,2.088,5.411,2.252,8.432  c-3.188-1.261-6.266-0.112-6.591,0.017c-0.141-1.81-0.607-3.553-1.373-5.163C63.719,43.606,66.92,43.045,69.028,40.381z   M62.141,41.636c-0.506-0.731-1.08-1.422-1.722-2.064c-0.639-0.639-1.326-1.21-2.054-1.714c0.314-0.251,2.811-2.338,3.304-5.703  c2.458,1.611,4.563,3.717,6.173,6.176C64.472,38.827,62.385,41.33,62.141,41.636z"/><circle cx="50" cy="38.118" r="0.726"/><circle cx="50" cy="61.848" r="0.726"/><circle cx="45.459" cy="39.021" r="0.726"/><circle cx="54.541" cy="60.944" r="0.726"/><circle cx="41.61" cy="41.593" r="0.726"/><circle cx="58.39" cy="58.373" r="0.726"/><circle cx="39.038" cy="45.442" r="0.726"/><circle cx="60.962" cy="54.523" r="0.726"/><circle cx="38.135" cy="49.983" r="0.726"/><circle cx="61.865" cy="49.983" r="0.726"/><circle cx="39.038" cy="54.523" r="0.726"/><circle cx="60.962" cy="45.442" r="0.726"/><circle cx="41.61" cy="58.373" r="0.726"/><circle cx="58.39" cy="41.593" r="0.726"/><circle cx="45.459" cy="60.945" r="0.726"/><circle cx="54.541" cy="39.021" r="0.726"/><text x="0" y="115" fill="#000000" font-size="5px" font-weight="bold" font-family="'Helvetica Neue', Helvetica, Arial-Unicode, Arial, Sans-serif">Created by André Luiz</text><text x="0" y="120" fill="#000000" font-size="5px" font-weight="bold" font-family="'Helvetica Neue', Helvetica, Arial-Unicode, Arial, Sans-serif">from the Noun Project</text></svg>